<svg width="200" height="229" viewBox="0 0 200 229" fill="none" xmlns="http://www.w3.org/2000/svg">
<g clip-path="url(#clip0_120_332)">
<path d="M156.629 57.7811C168.223 59.8659 177.732 66.1159 185.165 76.5311C191.705 85.7587 196.165 97.3659 198.54 111.352C200.625 124.152 200.469 136.946 198.094 149.745C194.527 170.875 187.393 188.585 176.692 202.87C163.906 220.134 147.857 228.763 128.536 228.763C123.777 228.763 118.58 227.277 112.929 224.299C109.062 221.919 104.754 220.727 99.9955 220.727C95.2366 220.727 90.933 221.919 87.0625 224.299C81.4107 227.277 76.2143 228.763 71.4553 228.763C52.1339 228.763 36.0848 220.134 23.2991 202.87C12.5982 188.585 5.46426 170.875 1.8973 149.745C-0.4777 136.946 -0.63395 124.152 1.45087 111.352C3.82587 97.3659 8.28569 85.7587 14.8259 76.5311C22.2589 66.1159 31.7678 59.8659 43.3616 57.7811C50.4955 56.5891 60.3036 57.6337 72.7902 60.9061C83.4911 63.8837 92.558 67.4552 99.991 71.6203C107.424 67.4552 116.491 63.8837 127.192 60.9061C139.683 57.6337 149.496 56.5891 156.629 57.7811ZM132.103 39.4775C127.942 43.348 122.437 46.1739 115.603 47.9596C110.844 49.4462 105.647 50.1918 99.9955 50.1918L93.308 49.7453C92.7143 45.5802 92.7143 40.8168 93.308 35.4596C94.5 24.7453 97.9152 16.5623 103.562 10.9061C107.723 7.03552 113.228 4.20963 120.062 2.42392C124.821 0.937308 130.018 0.191772 135.67 0.191772L142.357 0.638201L142.804 7.33463C142.804 12.9909 142.058 18.1962 140.576 22.9596C138.795 29.8034 135.973 35.3123 132.103 39.4775Z" fill="#343A40"/>
</g>
<defs>
<clipPath id="clip0_120_332">
<rect width="200" height="228.571" fill="white" transform="translate(0 0.191772)"/>
</clipPath>
</defs>
</svg>
