<svg width="38" height="39" viewBox="0 0 38 39" fill="none" xmlns="http://www.w3.org/2000/svg">
<path d="M14.345 3.2476C11.3525 3.23177 8.43918 6.11344 9.76918 9.69177H4.75001C3.91016 9.69177 3.1047 10.0254 2.51084 10.6193C1.91697 11.2131 1.58334 12.0186 1.58334 12.8584V16.0251C1.58334 16.445 1.75016 16.8478 2.04709 17.1447C2.34402 17.4416 2.74675 17.6084 3.16668 17.6084H17.4167V12.8584H20.5833V17.6084H34.8333C35.2533 17.6084 35.656 17.4416 35.9529 17.1447C36.2499 16.8478 36.4167 16.445 36.4167 16.0251V12.8584C36.4167 12.0186 36.083 11.2131 35.4892 10.6193C34.8953 10.0254 34.0899 9.69177 33.25 9.69177H28.2308C30.0833 4.51427 23.1167 0.856771 19.9025 5.32177L19 6.5251L18.0975 5.2901C17.1 3.88094 15.7225 3.26344 14.345 3.2476ZM14.25 6.5251C15.6592 6.5251 16.3717 8.2351 15.3742 9.2326C14.3767 10.2301 12.6667 9.5176 12.6667 8.10844C12.6667 7.68851 12.8335 7.28579 13.1304 6.98885C13.4274 6.69192 13.8301 6.5251 14.25 6.5251ZM23.75 6.5251C25.1592 6.5251 25.8717 8.2351 24.8742 9.2326C23.8767 10.2301 22.1667 9.5176 22.1667 8.10844C22.1667 7.68851 22.3335 7.28579 22.6304 6.98885C22.9274 6.69192 23.3301 6.5251 23.75 6.5251ZM3.16668 19.1918V31.8584C3.16668 32.6983 3.50031 33.5037 4.09417 34.0976C4.68804 34.6915 5.49349 35.0251 6.33334 35.0251H31.6667C32.5065 35.0251 33.312 34.6915 33.9059 34.0976C34.4997 33.5037 34.8333 32.6983 34.8333 31.8584V19.1918H20.5833V31.8584H17.4167V19.1918H3.16668Z" fill="black"/>
</svg>
