<svg width="93" height="96" viewBox="0 0 93 96" fill="none" xmlns="http://www.w3.org/2000/svg">
<path d="M34.1 44.8C29.9892 44.8 26.0467 43.1143 23.1399 40.1137C20.2331 37.1131 18.6 33.0435 18.6 28.8V16C18.6 15.1513 18.9266 14.3374 19.508 13.7373C20.0894 13.1371 20.8779 12.8 21.7 12.8H24.8C25.6222 12.8 26.4107 12.4629 26.9921 11.8627C27.5734 11.2626 27.9 10.4487 27.9 9.6C27.9 8.75131 27.5734 7.93738 26.9921 7.33726C26.4107 6.73714 25.6222 6.4 24.8 6.4H21.7C19.2335 6.4 16.868 7.41143 15.1239 9.21178C13.3798 11.0121 12.4 13.4539 12.4 16V28.8C12.404 32.4152 13.258 35.9753 14.8887 39.1747C16.5194 42.374 18.878 45.117 21.762 47.168C24.5357 49.6873 26.7847 52.7619 28.3727 56.2053C29.9607 59.6487 30.8545 63.3893 31 67.2C31 73.1408 33.2863 78.8384 37.3558 83.0392C41.4253 87.24 46.9448 89.6 52.7 89.6C58.4552 89.6 63.9747 87.24 68.0442 83.0392C72.1138 78.8384 74.4 73.1408 74.4 67.2V63.552C77.3223 62.7731 79.869 60.9209 81.5629 58.3424C83.2568 55.7639 83.9815 52.6362 83.6012 49.5456C83.2209 46.455 81.7617 43.6137 79.4971 41.5542C77.2326 39.4947 74.3181 38.3585 71.3 38.3585C68.2819 38.3585 65.3675 39.4947 63.1029 41.5542C60.8383 43.6137 59.3791 46.455 58.9989 49.5456C58.6186 52.6362 59.3433 55.7639 61.0372 58.3424C62.731 60.9209 65.2778 62.7731 68.2 63.552V67.2C68.2 71.4435 66.567 75.5131 63.6602 78.5137C60.7534 81.5143 56.8109 83.2 52.7 83.2C48.5892 83.2 44.6467 81.5143 41.7399 78.5137C38.8331 75.5131 37.2 71.4435 37.2 67.2C37.3534 63.3845 38.2569 59.6411 39.8557 56.1974C41.4544 52.7537 43.7151 49.6816 46.5 47.168C49.3726 45.1099 51.7191 42.3638 53.3388 39.1649C54.9585 35.9659 55.803 32.4095 55.8 28.8V16C55.8 13.4539 54.8202 11.0121 53.0761 9.21178C51.332 7.41143 48.9665 6.4 46.5 6.4H43.4C42.5779 6.4 41.7894 6.73714 41.208 7.33726C40.6266 7.93738 40.3 8.75131 40.3 9.6C40.3 10.4487 40.6266 11.2626 41.208 11.8627C41.7894 12.4629 42.5779 12.8 43.4 12.8H46.5C47.3222 12.8 48.1107 13.1371 48.6921 13.7373C49.2734 14.3374 49.6 15.1513 49.6 16V28.8C49.6 30.9012 49.1991 32.9817 48.4202 34.9229C47.6412 36.8641 46.4995 38.628 45.0602 40.1137C43.6209 41.5994 41.9122 42.778 40.0316 43.5821C38.1511 44.3861 36.1355 44.8 34.1 44.8ZM71.3 57.6C69.6557 57.6 68.0787 56.9257 66.916 55.7255C65.7532 54.5252 65.1 52.8974 65.1 51.2C65.1 49.5026 65.7532 47.8747 66.916 46.6745C68.0787 45.4743 69.6557 44.8 71.3 44.8C72.9444 44.8 74.5214 45.4743 75.6841 46.6745C76.8468 47.8747 77.5 49.5026 77.5 51.2C77.5 52.8974 76.8468 54.5252 75.6841 55.7255C74.5214 56.9257 72.9444 57.6 71.3 57.6Z" fill="black"/>
</svg>
