<?xml version="1.0" encoding="UTF-8"?>
<svg version="1.1" xmlns="http://www.w3.org/2000/svg" width="81" height="82">
<path d="M0 0 C0.78761719 -0.00257812 1.57523438 -0.00515625 2.38671875 -0.0078125 C4.3125 0.125 4.3125 0.125 5.3125 1.125 C5.44856971 3.64008881 5.52352893 6.1313185 5.55859375 8.6484375 C5.59026938 10.23397426 5.62226413 11.81950466 5.65454102 13.4050293 C5.66993927 14.23771332 5.68533752 15.07039734 5.70120239 15.92831421 C5.95523823 32.40608512 5.95523823 32.40608512 7.375 48.8125 C8.11796936 54.87823491 8.61161878 60.88724042 8.75 67 C8.78424072 67.74467529 8.81848145 68.48935059 8.85375977 69.2565918 C8.88651297 73.24464037 8.48184097 74.91734911 5.9296875 78.046875 C1.84847536 81.28747927 -0.35666124 82.14612442 -5.625 82.0625 C-10.17636054 81.35565992 -12.47038516 79.34211484 -15.6875 76.125 C-20.17239621 67.15520758 -16.024912 50.77347228 -14.6875 41.125 C-15.925 41.2075 -17.1625 41.29 -18.4375 41.375 C-21.48178546 41.35814722 -22.5035962 41.24081283 -25.15625 39.5703125 C-28.36064191 34.4530948 -27.27149184 27.92362603 -26.6875 22.125 C-24.96661381 15.06660583 -21.70977826 8.7776853 -15.5078125 4.6875 C-10.26565844 1.66251929 -6.09412043 -0.02014585 0 0 Z " fill="#FFFFFF" transform="translate(72.6875,-0.125)"/>
<path d="M0 0 C2.5 0.125 2.5 0.125 3.5 1.125 C3.65686249 2.68448542 3.75076639 4.25042668 3.81640625 5.81640625 C3.87924805 7.23276367 3.87924805 7.23276367 3.94335938 8.67773438 C3.98267578 9.67095703 4.02199219 10.66417969 4.0625 11.6875 C4.10568359 12.68458984 4.14886719 13.68167969 4.19335938 14.70898438 C4.29980298 17.1808415 4.40181928 19.6528031 4.5 22.125 C5.49 22.125 6.48 22.125 7.5 22.125 C7.52505615 21.49408447 7.5501123 20.86316895 7.57592773 20.21313477 C7.69154137 17.37103175 7.81442316 14.52928917 7.9375 11.6875 C7.99647461 10.19766602 7.99647461 10.19766602 8.05664062 8.67773438 C8.09853516 7.73349609 8.14042969 6.78925781 8.18359375 5.81640625 C8.22025146 4.94185791 8.25690918 4.06730957 8.29467773 3.16625977 C8.5 1.125 8.5 1.125 9.5 0.125 C12 -0 12 -0 14.5 0.125 C16.08403524 1.70903524 15.71974935 3.4021638 15.81640625 5.59765625 C15.85830078 6.49677734 15.90019531 7.39589844 15.94335938 8.32226562 C15.98267578 9.26779297 16.02199219 10.21332031 16.0625 11.1875 C16.10568359 12.13689453 16.14886719 13.08628906 16.19335938 14.06445312 C16.29979276 16.41781353 16.40181008 18.77128354 16.5 21.125 C17.49 21.455 18.48 21.785 19.5 22.125 C19.51981934 21.56514404 19.53963867 21.00528809 19.56005859 20.4284668 C19.65537783 17.88934146 19.76502753 15.35103112 19.875 12.8125 C19.9059375 11.93142578 19.936875 11.05035156 19.96875 10.14257812 C20.00742187 9.29501953 20.04609375 8.44746094 20.0859375 7.57421875 C20.1173584 6.79393311 20.1487793 6.01364746 20.18115234 5.2097168 C20.5 3.125 20.5 3.125 22.5 0.125 C25.125 -0.0625 25.125 -0.0625 27.5 0.125 C34.13768383 23.58649881 34.13768383 23.58649881 28.65625 33.47265625 C27.5 35.125 27.5 35.125 25.25 36.9375 C21.76326535 41.29591831 23.1976681 47.29816854 23.76220703 52.57666016 C23.86259277 53.46530762 23.96297852 54.35395508 24.06640625 55.26953125 C24.16679199 56.19000244 24.26717773 57.11047363 24.37060547 58.05883789 C24.5786745 59.90789508 24.80500249 61.75500688 25.05126953 63.59936523 C25.72333999 69.42091934 25.51222814 73.0253506 22.5 78.125 C19.62558352 80.72535903 16.26028858 81.96377731 12.41015625 82.31640625 C7.06391674 81.97777688 4.22718186 79.85218186 0.5 76.125 C-3.10726638 68.91046725 -0.12269162 57.23067131 1.0625 49.53515625 C2.08227996 43.42851811 2.08227996 43.42851811 0.00390625 37.89453125 C-0.63675781 37.24871094 -1.27742187 36.60289063 -1.9375 35.9375 C-6.88558091 30.86946562 -6.73371572 26.3022559 -6.75756836 19.54272461 C-6.51733058 0.32586653 -6.51733058 0.32586653 0 0 Z " fill="#FFFFFF" transform="translate(6.5,-0.125)"/>
</svg>
