<svg width="81" height="82" viewBox="0 0 81 82" fill="none" xmlns="http://www.w3.org/2000/svg">
<path d="M32.5433 0.50421C32.9556 0.693991 33.3175 0.966228 33.603 1.30135C33.8885 1.63648 34.0905 2.02617 34.1945 2.44242C34.3066 2.8995 37.3846 15.1305 37.3846 23.3346C37.3846 28.8311 34.6306 33.7316 30.3438 36.9079C28.7862 38.0651 28.0385 39.3263 28.0385 40.3793V43.1912C28.0385 43.3262 28.0468 43.4535 28.0634 43.5731C28.2752 45.0079 29.0416 50.3366 29.7582 55.8619C30.4622 61.2831 31.1538 67.1961 31.1538 69.6203C31.1538 72.6893 29.8409 75.6325 27.5039 77.8026C25.167 79.9726 21.9973 81.1918 18.6923 81.1918C15.3873 81.1918 12.2177 79.9726 9.88067 77.8026C7.54368 75.6325 6.23077 72.6893 6.23077 69.6203C6.23077 67.1903 6.92238 61.2889 7.62646 55.8619C8.343 50.3366 9.10938 45.0079 9.32123 43.5731L9.34615 43.1912V40.3793C9.34615 39.3263 8.59846 38.0651 7.04077 36.9079C4.84431 35.2821 3.0707 33.2175 1.85175 30.8676C0.63281 28.5177 -0.000122909 25.9429 1.79025e-08 23.3346C1.79025e-08 15.1594 3.05308 2.99207 3.19015 2.44821C3.35213 1.80507 3.744 1.23187 4.30185 0.822085C4.85971 0.412303 5.55063 0.190123 6.26192 0.191782C8.00654 0.191782 9.42092 1.50514 9.42092 3.12514V20.4707C9.39636 20.8614 9.4583 21.2527 9.60291 21.6203C9.74753 21.9879 9.97175 22.3241 10.2617 22.6081C10.5517 22.8921 10.9013 23.1179 11.289 23.2716C11.6766 23.4252 12.094 23.5035 12.5155 23.5015C12.937 23.4995 13.3536 23.4174 13.7395 23.2601C14.1254 23.1028 14.4726 22.8737 14.7594 22.587C15.0463 22.3002 15.2669 21.9619 15.4075 21.593C15.5481 21.224 15.6057 20.8322 15.5769 20.4418V3.08464C15.5769 2.31741 15.9052 1.5816 16.4894 1.03908C17.0736 0.496564 17.8661 0.191782 18.6923 0.191782C19.5186 0.191782 20.311 0.496564 20.8952 1.03908C21.4795 1.5816 21.8077 2.31741 21.8077 3.08464V20.5922C21.825 21.3518 22.1666 22.0738 22.7573 22.5995C23.348 23.1252 24.1394 23.4115 24.9573 23.3954C25.7753 23.3793 26.5529 23.0621 27.1191 22.5136C27.6852 21.9651 27.9935 21.2303 27.9762 20.4707V3.11357C27.9762 1.49935 29.3843 0.191782 31.1289 0.191782C31.266 0.191782 31.8766 0.191782 32.5433 0.50421ZM46.7308 26.2275C46.7308 19.3224 49.6848 12.7001 54.943 7.81746C60.2013 2.93482 67.333 0.191782 74.7692 0.191782C75.5955 0.191782 76.3879 0.496564 76.9721 1.03908C77.5564 1.5816 77.8846 2.31741 77.8846 3.08464V37.6427L78.003 38.6668C78.4986 42.9849 78.9742 47.3049 79.4298 51.6268C80.1962 58.8936 81 67.0399 81 69.6203C81 72.6893 79.6871 75.6325 77.3501 77.8026C75.0131 79.9726 71.8435 81.1918 68.5385 81.1918C65.2335 81.1918 62.0638 79.9726 59.7268 77.8026C57.3898 75.6325 56.0769 72.6893 56.0769 69.6203C56.0769 67.0399 56.8807 58.8936 57.6471 51.6268C58.0396 47.9413 58.4322 44.412 58.725 41.7968L58.8496 40.6918H52.9615C51.309 40.6918 49.7242 40.0822 48.5557 38.9972C47.3872 37.9121 46.7308 36.4405 46.7308 34.9061V26.2275Z" fill="black"/>
</svg>
