<svg width="32" height="33" viewBox="0 0 32 33" fill="none" xmlns="http://www.w3.org/2000/svg">
<path d="M11.7333 15.1251C10.3188 15.1251 8.96229 14.5632 7.96209 13.563C6.9619 12.5628 6.4 11.2063 6.4 9.79177V5.52511C6.4 5.24221 6.51238 4.9709 6.71242 4.77086C6.91245 4.57082 7.18377 4.45844 7.46666 4.45844H8.53333C8.81623 4.45844 9.08754 4.34606 9.28758 4.14602C9.48762 3.94598 9.6 3.67467 9.6 3.39177C9.6 3.10888 9.48762 2.83757 9.28758 2.63753C9.08754 2.43749 8.81623 2.32511 8.53333 2.32511H7.46666C6.61797 2.32511 5.80404 2.66225 5.20392 3.26237C4.6038 3.86248 4.26666 4.67641 4.26666 5.52511V9.79177C4.26803 10.9968 4.56189 12.1835 5.12298 13.25C5.68408 14.3164 6.49565 15.2308 7.488 15.9144C8.44237 16.7542 9.21623 17.7791 9.76263 18.9269C10.309 20.0747 10.6166 21.3215 10.6667 22.5918C10.6667 24.5721 11.4533 26.4712 12.8536 27.8715C14.2539 29.2718 16.153 30.0584 18.1333 30.0584C20.1136 30.0584 22.0128 29.2718 23.4131 27.8715C24.8133 26.4712 25.6 24.5721 25.6 22.5918V21.3758C26.6055 21.1162 27.4818 20.4987 28.0646 19.6392C28.6475 18.7797 28.8968 17.7372 28.766 16.707C28.6351 15.6768 28.1331 14.7297 27.3538 14.0432C26.5746 13.3567 25.5718 12.9779 24.5333 12.9779C23.4949 12.9779 22.492 13.3567 21.7128 14.0432C20.9336 14.7297 20.4315 15.6768 20.3007 16.707C20.1698 17.7372 20.4192 18.7797 21.002 19.6392C21.5849 20.4987 22.4612 21.1162 23.4667 21.3758V22.5918C23.4667 24.0063 22.9048 25.3628 21.9046 26.363C20.9044 27.3632 19.5478 27.9251 18.1333 27.9251C16.7188 27.9251 15.3623 27.3632 14.3621 26.363C13.3619 25.3628 12.8 24.0063 12.8 22.5918C12.8528 21.32 13.1637 20.0722 13.7138 18.9242C14.2639 17.7763 15.0417 16.7523 16 15.9144C16.9884 15.2284 17.7958 14.313 18.3531 13.2467C18.9104 12.1804 19.201 10.9949 19.2 9.79177V5.52511C19.2 4.67641 18.8629 3.86248 18.2627 3.26237C17.6626 2.66225 16.8487 2.32511 16 2.32511H14.9333C14.6504 2.32511 14.3791 2.43749 14.1791 2.63753C13.979 2.83757 13.8667 3.10888 13.8667 3.39177C13.8667 3.67467 13.979 3.94598 14.1791 4.14602C14.3791 4.34606 14.6504 4.45844 14.9333 4.45844H16C16.2829 4.45844 16.5542 4.57082 16.7542 4.77086C16.9543 4.9709 17.0667 5.24221 17.0667 5.52511V9.79177C17.0667 10.4922 16.9287 11.1857 16.6607 11.8328C16.3927 12.4798 15.9998 13.0678 15.5046 13.563C15.0093 14.0583 14.4214 14.4511 13.7743 14.7191C13.1272 14.9872 12.4337 15.1251 11.7333 15.1251ZM24.5333 19.3918C23.9675 19.3918 23.4249 19.167 23.0248 18.7669C22.6248 18.3669 22.4 17.8242 22.4 17.2584C22.4 16.6926 22.6248 16.15 23.0248 15.7499C23.4249 15.3499 23.9675 15.1251 24.5333 15.1251C25.0991 15.1251 25.6417 15.3499 26.0418 15.7499C26.4419 16.15 26.6667 16.6926 26.6667 17.2584C26.6667 17.8242 26.4419 18.3669 26.0418 18.7669C25.6417 19.167 25.0991 19.3918 24.5333 19.3918Z" fill="black"/>
</svg>
