<svg width="32" height="32" viewBox="0 0 32 32" fill="none" xmlns="http://www.w3.org/2000/svg">
<path d="M28.7576 13.0352C28.7086 12.8837 28.6183 12.7489 28.4967 12.6461C28.3751 12.5434 28.2271 12.4767 28.0696 12.4536L20.2584 11.3184L16.7656 4.24C16.6871 4.1068 16.5751 3.9964 16.4409 3.91971C16.3066 3.84301 16.1546 3.80267 16 3.80267C15.8454 3.80267 15.6934 3.84301 15.5591 3.91971C15.4249 3.9964 15.3129 4.1068 15.2344 4.24L11.7416 11.3168L3.9304 12.4536C3.7728 12.4765 3.62476 12.5431 3.50302 12.6458C3.38127 12.7485 3.29069 12.8832 3.2415 13.0347C3.19231 13.1861 3.18648 13.3484 3.22467 13.503C3.26286 13.6576 3.34354 13.7984 3.4576 13.9096L9.1104 19.4184L7.7768 27.2C7.74982 27.3569 7.7673 27.5182 7.82724 27.6657C7.88719 27.8131 7.98721 27.9409 8.11599 28.0344C8.24477 28.128 8.39717 28.1837 8.55595 28.1951C8.71472 28.2065 8.87353 28.1733 9.0144 28.0992L16 24.4248L22.9864 28.0976C23.1271 28.1716 23.2858 28.2048 23.4444 28.1934C23.603 28.182 23.7552 28.1265 23.8839 28.0331C24.0126 27.9397 24.1127 27.8123 24.1728 27.6651C24.2329 27.5178 24.2506 27.3568 24.224 27.2L22.8904 19.42L28.5432 13.9112C28.6572 13.7998 28.7378 13.6587 28.7757 13.5039C28.8136 13.349 28.8073 13.1867 28.7576 13.0352Z" fill="#030303"/>
</svg>
