<svg width="45" height="36" viewBox="0 0 45 36" fill="none" xmlns="http://www.w3.org/2000/svg">
<path fill-rule="evenodd" clip-rule="evenodd" d="M5.625 0.191772C4.13316 0.191772 2.70242 0.811518 1.64752 1.91467C0.592632 3.01783 0 4.51403 0 6.07413V14.8977C0 16.4578 0.592632 17.9539 1.64752 19.0571C2.70242 20.1603 4.13316 20.78 5.625 20.78H14.0625C14.0625 23.1202 13.1736 25.3645 11.5912 27.0192C10.0089 28.6739 7.86276 29.6035 5.625 29.6035H2.8125C2.06658 29.6035 1.35121 29.9134 0.823763 30.465C0.296317 31.0166 0 31.7647 0 32.5447C0 33.3248 0.296317 34.0729 0.823763 34.6244C1.35121 35.176 2.06658 35.4859 2.8125 35.4859H5.625C9.35461 35.4859 12.9315 33.9365 15.5687 31.1786C18.2059 28.4207 19.6875 24.6802 19.6875 20.78V6.07413C19.6875 4.51403 19.0949 3.01783 18.04 1.91467C16.9851 0.811518 15.5543 0.191772 14.0625 0.191772H5.625ZM30.9375 0.191772C29.4457 0.191772 28.0149 0.811518 26.96 1.91467C25.9051 3.01783 25.3125 4.51403 25.3125 6.07413V14.8977C25.3125 16.4578 25.9051 17.9539 26.96 19.0571C28.0149 20.1603 29.4457 20.78 30.9375 20.78H39.375C39.375 23.1202 38.4861 25.3645 36.9037 27.0192C35.3214 28.6739 33.1753 29.6035 30.9375 29.6035H28.125C27.3791 29.6035 26.6637 29.9134 26.1363 30.465C25.6088 31.0166 25.3125 31.7647 25.3125 32.5447C25.3125 33.3248 25.6088 34.0729 26.1363 34.6244C26.6637 35.176 27.3791 35.4859 28.125 35.4859H30.9375C34.6671 35.4859 38.244 33.9365 40.8812 31.1786C43.5184 28.4207 45 24.6802 45 20.78V6.07413C45 4.51403 44.4074 3.01783 43.3525 1.91467C42.2976 0.811518 40.8668 0.191772 39.375 0.191772H30.9375Z" fill="black"/>
</svg>
