<?xml version="1.0" encoding="UTF-8"?>
<svg version="1.1" xmlns="http://www.w3.org/2000/svg" width="45" height="36">
<path d="M0 0 C1.02770508 0.00483398 1.02770508 0.00483398 2.07617188 0.00976562 C3.09807617 -0.0144043 3.09807617 -0.0144043 4.140625 -0.0390625 C9.12880892 -0.04394809 9.12880892 -0.04394809 11.33276367 1.5390625 C13.04535087 3.87758127 13.02586738 5.33375998 13.03710938 8.21679688 C13.04291016 9.65055664 13.04291016 9.65055664 13.04882812 11.11328125 C13.03722656 12.11037109 13.025625 13.10746094 13.01367188 14.13476562 C13.02527344 15.12025391 13.036875 16.10574219 13.04882812 17.12109375 C13.02679476 22.58904015 12.7686116 26.63484394 9.63867188 31.32226562 C4.37257882 36.1934017 0.51994606 36.54424221 -6.36132812 36.32226562 C-7.36132812 35.32226562 -7.36132812 35.32226562 -7.48632812 32.82226562 C-7.36132812 30.32226562 -7.36132812 30.32226562 -6.36132812 29.32226562 C-4.08148937 28.79134427 -1.78938729 28.35908591 0.50976562 27.91992188 C2.83193767 27.4554452 2.83193767 27.4554452 4.63867188 25.32226562 C5.28119538 23.25352528 5.28119538 23.25352528 5.63867188 21.32226562 C4.8678125 21.34546875 4.09695313 21.36867188 3.30273438 21.39257812 C2.29984375 21.410625 1.29695312 21.42867187 0.26367188 21.44726562 C-0.7340625 21.47046875 -1.73179688 21.49367188 -2.75976562 21.51757812 C-5.36132812 21.32226562 -5.36132812 21.32226562 -7.36132812 19.32226562 C-7.55989784 16.44884501 -7.63961758 13.69364574 -7.61132812 10.82226562 C-7.6190625 10.03722656 -7.62679688 9.2521875 -7.63476562 8.44335938 C-7.61188894 1.77480702 -6.84024742 0.07383977 0 0 Z " fill="#00000" transform="translate(7.361328125,-0.322265625)"/>
<path d="M0 0 C0.68513672 -0.00322266 1.37027344 -0.00644531 2.07617188 -0.00976562 C7.17022414 0.04522414 7.17022414 0.04522414 9.4375 2.3125 C9.97755382 6.35267537 9.90079399 10.42792675 9.9375 14.5 C9.97875 15.62470703 10.02 16.74941406 10.0625 17.90820312 C10.15030366 27.24283003 10.15030366 27.24283003 6.65625 31.48828125 C3.89329148 34.27807742 1.06949184 36.15067224 -2.88671875 36.54296875 C-3.66660156 36.52878906 -4.44648438 36.51460937 -5.25 36.5 C-6.03761719 36.49355469 -6.82523438 36.48710938 -7.63671875 36.48046875 C-9.5625 36.3125 -9.5625 36.3125 -10.5625 35.3125 C-10.6875 32.8125 -10.6875 32.8125 -10.5625 30.3125 C-9.5625 29.3125 -9.5625 29.3125 -5.75 29.0625 C-2.28677743 28.68390398 -1.73357307 28.48357307 0.875 25.875 C2.4078151 23.44171661 2.4078151 23.44171661 3.4375 21.3125 C2.29861328 21.36470703 2.29861328 21.36470703 1.13671875 21.41796875 C0.14285156 21.44503906 -0.85101563 21.47210937 -1.875 21.5 C-2.86113281 21.53480469 -3.84726562 21.56960937 -4.86328125 21.60546875 C-7.5625 21.3125 -7.5625 21.3125 -9.39453125 20.26953125 C-11.19439387 17.25370793 -10.99589656 14.21896574 -10.9375 10.8125 C-10.94910156 10.13574219 -10.96070312 9.45898438 -10.97265625 8.76171875 C-10.9563749 6.01017044 -10.83024658 3.80917487 -9.51171875 1.36328125 C-6.45580025 -0.28409766 -3.37872695 -0.07991313 0 0 Z " fill="#00000" transform="translate(35.5625,-0.3125)"/>
</svg>
