<?xml version="1.0" encoding="UTF-8"?>
<svg version="1.1" xmlns="http://www.w3.org/2000/svg" width="70" height="80">
<path d="M0 0 C3.93106471 1.14833266 6.10585602 3.78836496 8.83984375 6.73828125 C9.38962891 7.310625 9.93941406 7.88296875 10.50585938 8.47265625 C11.85793785 9.88352074 13.1942271 11.30948637 14.52734375 12.73828125 C14.90246094 12.29355469 15.27757812 11.84882813 15.6640625 11.390625 C17.20978708 9.68137288 18.70520213 8.15120057 20.52734375 6.73828125 C23.70214578 6.63105592 24.91281264 7.22993262 27.3359375 9.234375 C36.16080396 19.75226141 44.04080715 32.51106623 43.52734375 46.73828125 C42.00533904 57.75818077 37.43929861 67.19165196 28.7421875 74.26953125 C20.81768517 79.52458041 11.35345762 81.95870767 1.94921875 80.27734375 C-9.02077204 77.672737 -16.46328861 72.28165525 -22.47265625 62.73828125 C-27.27747045 54.5928418 -27.50257585 45.90817942 -26.47265625 36.73828125 C-25.31586459 32.4028718 -23.62814238 28.66434527 -21.47265625 24.73828125 C-20.98796875 23.83851562 -20.50328125 22.93875 -20.00390625 22.01171875 C-16.68650075 16.36887704 -12.68975048 11.42293379 -8.34765625 6.55078125 C-7.84484131 5.97336182 -7.34202637 5.39594238 -6.82397461 4.80102539 C-4.70226285 2.50550009 -3.02688942 0.90376319 0 0 Z M-0.47265625 32.73828125 C-2.25471646 34.64863138 -2.25471646 34.64863138 -4.03515625 37.05078125 C-4.65519531 37.85128906 -5.27523438 38.65179688 -5.9140625 39.4765625 C-8.78648375 43.64481288 -8.98594247 47.82006606 -8.47265625 52.73828125 C-6.41466411 58.3706808 -3.34304444 61.22755062 1.90234375 63.98828125 C6.68248088 65.35403472 10.42230369 65.08122472 15.15234375 63.61328125 C19.56260381 61.16313677 22.24046933 58.31203008 24.52734375 53.73828125 C24.72492606 51.66263449 24.72492606 51.66263449 24.71484375 49.36328125 C24.72902344 48.59242187 24.74320313 47.8215625 24.7578125 47.02734375 C24.50535982 44.51993237 23.77927842 42.90566223 22.52734375 40.73828125 C20.25441434 41.75718064 18.69709814 42.54730756 17.02734375 44.42578125 C15.52734375 45.73828125 15.52734375 45.73828125 13.75390625 45.69921875 C10.3893271 44.24713722 8.58303863 41.50680205 6.40234375 38.67578125 C4.82038142 36.64413575 3.21472058 34.68728968 1.52734375 32.73828125 C0.86734375 32.73828125 0.20734375 32.73828125 -0.47265625 32.73828125 Z " fill="#00000" transform="translate(26.47265625,-0.73828125)"/>
</svg>
