<svg width="70" height="80" viewBox="0 0 70 80" fill="none" xmlns="http://www.w3.org/2000/svg">
<g clip-path="url(#clip0_120_349)">
<path d="M24.582 1.02497C25.7855 -0.101393 27.6525 -0.0859635 28.856 1.0404C33.1146 5.03669 37.1109 9.34157 40.8449 14.0013C42.5422 11.7795 44.4709 9.35701 46.5539 7.38201C47.7728 6.24021 49.6552 6.24021 50.8742 7.39744C56.2129 12.4892 60.7338 19.2166 63.9123 25.6045C67.0445 31.8998 69.1275 38.334 69.1275 42.8703C69.1275 62.5586 53.7287 79.1918 34.565 79.1918C15.1853 79.1918 0.00250244 62.5431 0.00250244 42.8549C0.00250244 36.9299 2.74899 29.6933 7.00758 22.534C11.3125 15.2666 17.3918 7.6906 24.582 1.02497ZM34.8273 64.3793C38.731 64.3793 42.1873 63.2992 45.4429 61.139C51.9388 56.6027 53.6824 47.5301 49.7787 40.4015C49.0843 39.0129 47.3099 38.9203 46.307 40.0929L42.4187 44.6138C41.4004 45.7865 39.5642 45.7556 38.6076 44.5367C36.0617 41.2965 31.5099 35.5103 28.9177 32.2238C27.9457 30.9894 26.0941 30.974 25.1066 32.2084C19.8914 38.766 17.2683 42.9011 17.2683 47.5455C17.2838 58.1148 25.0912 64.3793 34.8273 64.3793Z" fill="black"/>
</g>
<defs>
<clipPath id="clip0_120_349">
<rect width="69.13" height="79" fill="white" transform="translate(0 0.191772)"/>
</clipPath>
</defs>
</svg>
