<?xml version="1.0" encoding="UTF-8"?>
<svg version="1.1" xmlns="http://www.w3.org/2000/svg" width="57" height="63">
<path d="M0 0 C1.10408203 0.01353516 1.10408203 0.01353516 2.23046875 0.02734375 C4.0287888 0.05069856 5.82693911 0.08656164 7.625 0.125 C7.625 0.785 7.625 1.445 7.625 2.125 C6.5773451 3.02256951 5.4853372 3.86874295 4.375 4.6875 C-0.98002838 9.15363703 -3.1737186 14.77776028 -4.3125 21.5625 C-4.85100936 29.29010926 -2.09330976 36.42762141 2.76953125 42.37109375 C8.80279475 48.07411546 16.61676806 49.98340098 24.625 51.125 C19.99786719 57.50293982 15.30442174 61.04649783 7.625 63.125 C-3.04522186 64.33776699 -12.88209786 63.51081599 -21.6875 56.8125 C-29.06084164 49.43915836 -32.46815379 42.13908901 -32.75 31.625 C-32.45626294 21.52044507 -29.4776777 14.41161159 -22.375 7.125 C-15.47523069 1.65047261 -8.68666135 -0.20420723 0 0 Z " fill="#FFFFFF" transform="translate(32.375,-0.125)"/>
</svg>
