<svg width="57" height="63" viewBox="0 0 57 63" fill="none" xmlns="http://www.w3.org/2000/svg">
<path d="M53.7 51.12C47.8386 51.0538 42.1558 49.0929 37.5009 45.5302C32.846 41.9676 29.4687 36.9944 27.8737 31.3537C26.2787 25.713 26.5516 19.7077 28.6517 14.2349C30.7517 8.76216 34.5661 4.11578 39.525 0.99C37.0193 0.33911 34.4415 0.0064911 31.8525 0C23.4982 0 15.4861 3.31874 9.57868 9.22614C3.67128 15.1335 0.352539 23.1457 0.352539 31.5C0.352539 39.8543 3.67128 47.8665 9.57868 53.7739C15.4861 59.6813 23.4982 63 31.8525 63C36.5853 62.9957 41.2546 61.9112 45.5047 59.829C49.7548 57.7469 53.4735 54.722 56.3775 50.985C55.4878 51.0743 54.5942 51.1194 53.7 51.12Z" fill="black"/>
</svg>
